<svg xmlns="http://www.w3.org/2000/svg" width="20.14" height="24.06" viewBox="0 0 20.14 24.06">
  <g id="download" transform="translate(-32.304)">
    <g id="Group_116" data-name="Group 116" transform="translate(32.304)">
      <path id="Path_24" data-name="Path 24" d="M52.407,13.338a.481.481,0,0,0-.444-.31H46.7V.5a.491.491,0,0,0-.48-.5h-7.68a.491.491,0,0,0-.48.5V13.028h-5.28a.482.482,0,0,0-.444.309.518.518,0,0,0,.1.546l9.576,10.03a.467.467,0,0,0,.68,0l9.6-10.03A.516.516,0,0,0,52.407,13.338Z" transform="translate(-32.304)" fill="#fff"/>
    </g>
  </g>
</svg>
