<svg xmlns="http://www.w3.org/2000/svg" width="49.13" height="28.54" viewBox="0 0 49.13 28.54">
  <g id="group" transform="translate(0 -92.25)">
    <g id="Group_142" data-name="Group 142" transform="translate(0 92.25)">
      <path id="Path_30" data-name="Path 30" d="M42.491,104.808a5.023,5.023,0,0,0,2.391-4.2,5.382,5.382,0,0,0-5.609-5.132,5.382,5.382,0,0,0-5.609,5.132,5,5,0,0,0,2.391,4.2,9.955,9.955,0,0,0-3.315,1.779,12.968,12.968,0,0,0-4.549-2.268,6.424,6.424,0,0,0,3.432-5.567c0-3.593-3.179-6.5-7.106-6.5s-7.106,2.917-7.106,6.5a6.4,6.4,0,0,0,3.432,5.567,13.078,13.078,0,0,0-4.5,2.241,10.045,10.045,0,0,0-3.276-1.743,5.023,5.023,0,0,0,2.391-4.2,5.382,5.382,0,0,0-5.609-5.132,5.382,5.382,0,0,0-5.609,5.132,5,5,0,0,0,2.391,4.2A9.108,9.108,0,0,0,0,113.328v.587a.04.04,0,0,0,.039.036H11.928a10.96,10.96,0,0,0-.107,1.5v.6a4.964,4.964,0,0,0,5.172,4.731H32.06a4.964,4.964,0,0,0,5.172-4.731v-.6a10.96,10.96,0,0,0-.107-1.5H49.091a.04.04,0,0,0,.039-.036v-.587A9.144,9.144,0,0,0,42.491,104.808ZM35.219,100.6a4.07,4.07,0,1,1,4.131,3.709H39.2A3.879,3.879,0,0,1,35.219,100.6Zm-16.273-1.85A5.335,5.335,0,0,1,24.5,93.673a5.086,5.086,0,1,1,.321,10.148h-.642A5.306,5.306,0,0,1,18.946,98.751ZM5.765,100.6a3.9,3.9,0,0,1,4.054-3.709A3.721,3.721,0,1,1,9.9,104.31H9.74A3.886,3.886,0,0,1,5.765,100.6ZM12.2,112.519H1.575a8.064,8.064,0,0,1,8.185-6.786h.117a8.68,8.68,0,0,1,5.3,1.805A11.426,11.426,0,0,0,12.2,112.519Zm23.457,3.54a3.478,3.478,0,0,1-3.616,3.308H16.973a3.478,3.478,0,0,1-3.616-3.308v-.6c0-5.523,4.822-10.041,10.819-10.2.107.009.224.009.331.009s.224,0,.331-.009c6,.16,10.819,4.678,10.819,10.2Zm1.157-3.54a11.393,11.393,0,0,0-2.945-4.945,8.717,8.717,0,0,1,5.347-1.841h.117a8.064,8.064,0,0,1,8.185,6.786Z" transform="translate(0 -92.25)" fill="#fff"/>
    </g>
  </g>
</svg>
