<svg id="monitor" xmlns="http://www.w3.org/2000/svg" width="28.386" height="25.498" viewBox="0 0 28.386 25.498">
  <path id="Path_25" data-name="Path 25" d="M24.885,24.5H3.5A3.505,3.505,0,0,0,0,28V41.563a3.505,3.505,0,0,0,3.5,3.5h9.9v3.342H8.464a.8.8,0,0,0,0,1.591H19.922a.8.8,0,1,0,0-1.591H14.989V45.064h9.9a3.505,3.505,0,0,0,3.5-3.5V28A3.5,3.5,0,0,0,24.885,24.5ZM3.5,26.091H24.891A1.913,1.913,0,0,1,26.8,28V39.335H1.591V28A1.909,1.909,0,0,1,3.5,26.091ZM24.885,43.473H3.5a1.913,1.913,0,0,1-1.91-1.91v-.637h25.2v.637A1.913,1.913,0,0,1,24.885,43.473Z" transform="translate(0 -24.5)" fill="#fff"/>
</svg>
