<svg xmlns="http://www.w3.org/2000/svg" width="193" height="31.625" viewBox="0 0 193 31.625">
  <g id="Group_115" data-name="Group 115" transform="translate(-106 -688.153)">
    <path id="star" d="M32.914,12.443a1.75,1.75,0,0,0-1.51-1.206l-9.525-.865L18.113,1.556a1.754,1.754,0,0,0-3.226,0l-3.766,8.814-9.526.865a1.756,1.756,0,0,0-1,3.069L7.8,20.62,5.676,29.972a1.751,1.751,0,0,0,2.608,1.895l8.216-4.91,8.213,4.91a1.754,1.754,0,0,0,2.61-1.895L25.2,20.62l7.2-6.313A1.755,1.755,0,0,0,32.914,12.443Zm0,0" transform="translate(106 687.661)" fill="#ffc107"/>
    <path id="star-2" data-name="star" d="M32.914,12.443a1.75,1.75,0,0,0-1.51-1.206l-9.525-.865L18.113,1.556a1.754,1.754,0,0,0-3.226,0l-3.766,8.814-9.526.865a1.756,1.756,0,0,0-1,3.069L7.8,20.62,5.676,29.972a1.751,1.751,0,0,0,2.608,1.895l8.216-4.91,8.213,4.91a1.754,1.754,0,0,0,2.61-1.895L25.2,20.62l7.2-6.313A1.755,1.755,0,0,0,32.914,12.443Zm0,0" transform="translate(266 687.661)" fill="#ffc107"/>
    <path id="star-3" data-name="star" d="M32.914,12.443a1.75,1.75,0,0,0-1.51-1.206l-9.525-.865L18.113,1.556a1.754,1.754,0,0,0-3.226,0l-3.766,8.814-9.526.865a1.756,1.756,0,0,0-1,3.069L7.8,20.62,5.676,29.972a1.751,1.751,0,0,0,2.608,1.895l8.216-4.91,8.213,4.91a1.754,1.754,0,0,0,2.61-1.895L25.2,20.62l7.2-6.313A1.755,1.755,0,0,0,32.914,12.443Zm0,0" transform="translate(226 687.661)" fill="#ffc107"/>
    <path id="star-4" data-name="star" d="M32.914,12.443a1.75,1.75,0,0,0-1.51-1.206l-9.525-.865L18.113,1.556a1.754,1.754,0,0,0-3.226,0l-3.766,8.814-9.526.865a1.756,1.756,0,0,0-1,3.069L7.8,20.62,5.676,29.972a1.751,1.751,0,0,0,2.608,1.895l8.216-4.91,8.213,4.91a1.754,1.754,0,0,0,2.61-1.895L25.2,20.62l7.2-6.313A1.755,1.755,0,0,0,32.914,12.443Zm0,0" transform="translate(186 687.661)" fill="#ffc107"/>
    <path id="star-5" data-name="star" d="M32.914,12.443a1.75,1.75,0,0,0-1.51-1.206l-9.525-.865L18.113,1.556a1.754,1.754,0,0,0-3.226,0l-3.766,8.814-9.526.865a1.756,1.756,0,0,0-1,3.069L7.8,20.62,5.676,29.972a1.751,1.751,0,0,0,2.608,1.895l8.216-4.91,8.213,4.91a1.754,1.754,0,0,0,2.61-1.895L25.2,20.62l7.2-6.313A1.755,1.755,0,0,0,32.914,12.443Zm0,0" transform="translate(146 687.661)" fill="#ffc107"/>
  </g>
</svg>
